<?xml version="1.0" encoding="utf-8"?>
<!-- Generator: Adobe Illustrator 16.0.3, SVG Export Plug-In . SVG Version: 6.00 Build 0)  -->
<!DOCTYPE svg PUBLIC "-//W3C//DTD SVG 1.1//EN" "http://www.w3.org/Graphics/SVG/1.1/DTD/svg11.dtd">
<svg version="1.1" id="Layer_1" xmlns="http://www.w3.org/2000/svg" xmlns:xlink="http://www.w3.org/1999/xlink" x="0px" y="0px"
	 width="859px" height="195px" viewBox="0 0 859 195" enable-background="new 0 0 859 195" xml:space="preserve">
<text transform="matrix(1 0 0 1 25.4795 36.481)" font-family="'MyriadPro-Regular'" font-size="24">Predict the structure of two interacting strands, only allowing intermolecular pairs:</text>
<rect x="172.146" y="77.813" fill="none" stroke="#000000" width="140.854" height="84.741"/>
<text transform="matrix(1 0 0 1 182.8145 116.146)" font-family="'MyriadPro-Regular'" font-size="24">DuplexFold</text>
<g>
	<g>
		<line fill="none" stroke="#000000" x1="25.479" y1="100.48" x2="164.777" y2="100.48"/>
		<g>
			<path d="M170.813,100.48c-2.84,1.054-6.363,2.852-8.547,4.756l1.72-4.756l-1.72-4.755
				C164.449,97.629,167.973,99.427,170.813,100.48z"/>
		</g>
	</g>
</g>
<text transform="matrix(1 0 0 1 25.4795 85.813)" font-family="'MyriadPro-Regular'" font-size="24">.seq or .fasta</text>
<text transform="matrix(1 0 0 1 334.8164 93.813)" font-family="'MyriadPro-Regular'" font-size="24">.ct</text>
<g>
	<g>
		<line fill="none" stroke="#000000" x1="313.149" y1="108.48" x2="379.115" y2="108.48"/>
		<g>
			<path d="M385.15,108.48c-2.84,1.054-6.363,2.852-8.547,4.756l1.72-4.756l-1.72-4.755
				C378.787,105.629,382.311,107.427,385.15,108.48z"/>
		</g>
	</g>
</g>
<rect x="385.15" y="84.22" fill="none" stroke="#000000" width="111.336" height="45.78"/>
<text transform="matrix(1 0 0 1 395.8184 113.5532)" font-family="'MyriadPro-Regular'" font-size="24">draw</text>
<g>
	<g>
		<line fill="none" stroke="#000000" x1="496.486" y1="108.48" x2="581.115" y2="108.48"/>
		<g>
			<path d="M587.15,108.48c-2.84,1.054-6.363,2.852-8.548,4.756l1.721-4.756l-1.721-4.755
				C580.787,105.629,584.311,107.427,587.15,108.48z"/>
		</g>
	</g>
</g>
<text transform="matrix(1 0 0 1 516.4834 96.2202)" font-family="'MyriadPro-Regular'" font-size="24">.ps</text>
<g>
	<line fill="none" x1="328.15" y1="106.887" x2="328.15" y2="106.887"/>
</g>
<g>
	<g>
		<line fill="none" stroke="#000000" x1="25.479" y1="143.147" x2="164.777" y2="143.147"/>
		<g>
			<path d="M170.813,143.147c-2.84,1.054-6.363,2.852-8.547,4.756l1.72-4.756l-1.72-4.755
				C164.449,140.296,167.973,142.094,170.813,143.147z"/>
		</g>
	</g>
</g>
<text transform="matrix(1 0 0 1 25.4795 128.48)" font-family="'MyriadPro-Regular'" font-size="24">.seq or .fasta</text>
<g>
	<line fill="none" x1="328.15" y1="147.997" x2="328.15" y2="147.997"/>
</g>
</svg>
