<?xml version="1.0" encoding="utf-8"?>
<!-- Generator: Adobe Illustrator 16.0.3, SVG Export Plug-In . SVG Version: 6.00 Build 0)  -->
<!DOCTYPE svg PUBLIC "-//W3C//DTD SVG 1.1//EN" "http://www.w3.org/Graphics/SVG/1.1/DTD/svg11.dtd">
<svg version="1.1" id="Layer_1" xmlns="http://www.w3.org/2000/svg" xmlns:xlink="http://www.w3.org/1999/xlink" x="0px" y="0px"
	 width="673px" height="237px" viewBox="0 0 673 237" enable-background="new 0 0 673 237" xml:space="preserve">
<text transform="matrix(1 0 0 1 24.8916 42.8921)" font-family="'MyriadPro-Regular'" font-size="24">Predict a Structure Common to Two Sequences with Dynalign II:</text>
<rect x="172.146" y="79.813" fill="none" stroke="#000000" width="131.854" height="117.187"/>
<text transform="matrix(1 0 0 1 182.8145 109.146)" font-family="'MyriadPro-Regular'" font-size="24">dynalign_ii</text>
<g>
	<g>
		<line fill="none" stroke="#000000" x1="25.479" y1="102.48" x2="164.777" y2="102.48"/>
		<g>
			<path d="M170.813,102.48c-2.84,1.054-6.363,2.852-8.547,4.756l1.72-4.756l-1.72-4.755
				C164.449,99.629,167.973,101.427,170.813,102.48z"/>
		</g>
	</g>
</g>
<text transform="matrix(1 0 0 1 25.4795 87.813)" font-family="'MyriadPro-Regular'" font-size="24">.seq or .fasta</text>
<text transform="matrix(1 0 0 1 325.1484 85.8135)" font-family="'MyriadPro-Regular'" font-size="24">.ct</text>
<g>
	<g>
		<line fill="none" stroke="#000000" x1="303.481" y1="96.48" x2="369.447" y2="96.48"/>
		<g>
			<path d="M375.482,96.48c-2.84,1.054-6.363,2.852-8.547,4.756l1.72-4.756l-1.72-4.755
				C369.119,93.629,372.643,95.427,375.482,96.48z"/>
		</g>
	</g>
</g>
<rect x="375.482" y="73.813" fill="none" stroke="#000000" width="111.336" height="45.333"/>
<text transform="matrix(1 0 0 1 386.1504 103.1465)" font-family="'MyriadPro-Regular'" font-size="24">draw</text>
<g>
	<g>
		<line fill="none" stroke="#000000" x1="486.818" y1="96.48" x2="571.447" y2="96.48"/>
		<g>
			<path d="M577.482,96.48c-2.84,1.054-6.363,2.852-8.548,4.756l1.721-4.756l-1.721-4.755
				C571.119,93.63,574.643,95.428,577.482,96.48z"/>
		</g>
	</g>
</g>
<text transform="matrix(1 0 0 1 506.8154 85.8135)" font-family="'MyriadPro-Regular'" font-size="24">.ps</text>
<g>
	<line fill="none" x1="375.482" y1="96.48" x2="375.482" y2="96.48"/>
</g>
<g>
	<g>
		<line fill="none" stroke="#000000" x1="25.479" y1="145.147" x2="164.777" y2="145.147"/>
		<g>
			<path d="M170.813,145.147c-2.84,1.054-6.363,2.852-8.547,4.756l1.72-4.756l-1.72-4.755
				C164.449,142.296,167.973,144.094,170.813,145.147z"/>
		</g>
	</g>
</g>
<text transform="matrix(1 0 0 1 25.4795 130.48)" font-family="'MyriadPro-Regular'" font-size="24">.seq or .fasta</text>
<text transform="matrix(1 0 0 1 325.667 134.4805)" font-family="'MyriadPro-Regular'" font-size="24">.ct</text>
<g>
	<g>
		<line fill="none" stroke="#000000" x1="304" y1="145.147" x2="369.966" y2="145.147"/>
		<g>
			<path d="M376.001,145.147c-2.84,1.054-6.363,2.852-8.547,4.756l1.72-4.756l-1.72-4.755
				C369.638,142.296,373.161,144.094,376.001,145.147z"/>
		</g>
	</g>
</g>
<rect x="376.001" y="122.48" fill="none" stroke="#000000" width="111.336" height="45.333"/>
<text transform="matrix(1 0 0 1 386.6689 151.8135)" font-family="'MyriadPro-Regular'" font-size="24">draw</text>
<g>
	<g>
		<line fill="none" stroke="#000000" x1="487.337" y1="145.147" x2="571.966" y2="145.147"/>
		<g>
			<path d="M578.001,145.147c-2.84,1.054-6.363,2.852-8.548,4.756l1.721-4.756l-1.721-4.755
				C571.638,142.297,575.161,144.095,578.001,145.147z"/>
		</g>
	</g>
</g>
<text transform="matrix(1 0 0 1 507.334 134.4805)" font-family="'MyriadPro-Regular'" font-size="24">.ps</text>
<g>
	<line fill="none" x1="376.001" y1="145.147" x2="376.001" y2="145.147"/>
</g>
<g>
	<g>
		<line fill="none" stroke="#000000" x1="304.5" y1="186.481" x2="570.129" y2="186.481"/>
		<g>
			<path d="M576.164,186.481c-2.84,1.054-6.363,2.852-8.547,4.756l1.72-4.756l-1.72-4.755
				C569.801,183.63,573.324,185.428,576.164,186.481z"/>
		</g>
	</g>
</g>
<text transform="matrix(1 0 0 1 324.4971 175.814)" font-family="'MyriadPro-Regular'" font-size="24">.ali</text>
</svg>
