<?xml version="1.0" encoding="utf-8"?>
<!-- Generator: Adobe Illustrator 16.0.3, SVG Export Plug-In . SVG Version: 6.00 Build 0)  -->
<!DOCTYPE svg PUBLIC "-//W3C//DTD SVG 1.1//EN" "http://www.w3.org/Graphics/SVG/1.1/DTD/svg11.dtd">
<svg version="1.1" id="Layer_1" xmlns="http://www.w3.org/2000/svg" xmlns:xlink="http://www.w3.org/1999/xlink" x="0px" y="0px"
	 width="744px" height="195px" viewBox="0 0 744 195" enable-background="new 0 0 744 195" xml:space="preserve">
<text transform="matrix(1 0 0 1 25.4795 36.481)" font-family="'MyriadPro-Regular'" font-size="24">Predict a Conserved Structure Common to Two Sequences with PARTS:</text>
<rect x="172.146" y="77.813" fill="none" stroke="#000000" width="82.854" height="84.741"/>
<text transform="matrix(1 0 0 1 182.8145 116.146)" font-family="'MyriadPro-Regular'" font-size="24">PARTS</text>
<g>
	<g>
		<line fill="none" stroke="#000000" x1="25.479" y1="100.48" x2="164.777" y2="100.48"/>
		<g>
			<path d="M170.813,100.48c-2.84,1.054-6.363,2.852-8.547,4.756l1.72-4.756l-1.72-4.755
				C164.449,97.629,167.973,99.427,170.813,100.48z"/>
		</g>
	</g>
</g>
<text transform="matrix(1 0 0 1 25.4795 85.813)" font-family="'MyriadPro-Regular'" font-size="24">.seq or .fasta</text>
<text transform="matrix(1 0 0 1 277.8164 85.813)" font-family="'MyriadPro-Regular'" font-size="24">.ct</text>
<g>
	<g>
		<line fill="none" stroke="#000000" x1="256.149" y1="100.48" x2="322.115" y2="100.48"/>
		<g>
			<path d="M328.15,100.48c-2.84,1.054-6.363,2.852-8.547,4.756l1.72-4.756l-1.72-4.755
				C321.787,97.629,325.311,99.427,328.15,100.48z"/>
		</g>
	</g>
</g>
<rect x="328.15" y="76.22" fill="none" stroke="#000000" width="111.336" height="45.78"/>
<text transform="matrix(1 0 0 1 338.8184 105.5532)" font-family="'MyriadPro-Regular'" font-size="24">draw</text>
<g>
	<g>
		<line fill="none" stroke="#000000" x1="439.486" y1="100.48" x2="524.115" y2="100.48"/>
		<g>
			<path d="M530.15,100.48c-2.84,1.054-6.363,2.852-8.548,4.756l1.721-4.756l-1.721-4.755
				C523.787,97.629,527.311,99.427,530.15,100.48z"/>
		</g>
	</g>
</g>
<text transform="matrix(1 0 0 1 459.4834 88.2202)" font-family="'MyriadPro-Regular'" font-size="24">.ps</text>
<g>
	<line fill="none" x1="328.15" y1="98.887" x2="328.15" y2="98.887"/>
</g>
<g>
	<g>
		<line fill="none" stroke="#000000" x1="25.479" y1="143.147" x2="164.777" y2="143.147"/>
		<g>
			<path d="M170.813,143.147c-2.84,1.054-6.363,2.852-8.547,4.756l1.72-4.756l-1.72-4.755
				C164.449,140.296,167.973,142.094,170.813,143.147z"/>
		</g>
	</g>
</g>
<text transform="matrix(1 0 0 1 25.4795 128.48)" font-family="'MyriadPro-Regular'" font-size="24">.seq or .fasta</text>
<text transform="matrix(1 0 0 1 277.8164 134.9233)" font-family="'MyriadPro-Regular'" font-size="24">.ct</text>
<g>
	<g>
		<line fill="none" stroke="#000000" x1="256.149" y1="149.59" x2="322.115" y2="149.59"/>
		<g>
			<path d="M328.15,149.59c-2.84,1.054-6.363,2.852-8.547,4.756l1.72-4.756l-1.72-4.755
				C321.787,146.74,325.311,148.538,328.15,149.59z"/>
		</g>
	</g>
</g>
<rect x="328.15" y="125.331" fill="none" stroke="#000000" width="111.336" height="45.78"/>
<text transform="matrix(1 0 0 1 338.8184 154.6636)" font-family="'MyriadPro-Regular'" font-size="24">draw</text>
<g>
	<g>
		<line fill="none" stroke="#000000" x1="439.486" y1="149.59" x2="524.115" y2="149.59"/>
		<g>
			<path d="M530.15,149.59c-2.84,1.054-6.363,2.852-8.548,4.756l1.721-4.756l-1.721-4.755
				C523.787,146.74,527.311,148.538,530.15,149.59z"/>
		</g>
	</g>
</g>
<text transform="matrix(1 0 0 1 459.4834 137.3306)" font-family="'MyriadPro-Regular'" font-size="24">.ps</text>
<g>
	<line fill="none" x1="328.15" y1="147.997" x2="328.15" y2="147.997"/>
</g>
</svg>
