<?xml version="1.0" encoding="UTF-8" standalone="no"?>
<!-- Created with Inkscape (http://www.inkscape.org/) -->

<svg
        xmlns:dc="http://purl.org/dc/elements/1.1/"
        xmlns:cc="http://creativecommons.org/ns#"
        xmlns:rdf="http://www.w3.org/1999/02/22-rdf-syntax-ns#"
        xmlns="http://www.w3.org/2000/svg"
        xmlns:sodipodi="http://sodipodi.sourceforge.net/DTD/sodipodi-0.dtd"
        xmlns:inkscape="http://www.inkscape.org/namespaces/inkscape"
        width="24"
        height="24"
        viewBox="0 0 23.999999 24"
        id="svg2"
        version="1.1"
        inkscape:version="0.91 r13725"
        sodipodi:docname="clear-recent.svg"
        inkscape:export-filename="../clear-recent.png"
        inkscape:export-xdpi="90"
        inkscape:export-ydpi="90">
  <defs
     id="defs4">
    <filter
       style="color-interpolation-filters:sRGB;"
       inkscape:label="Handle Shadow"
       id="filter5202"
       width="1.3500000000000001"
       height="1.3500000000000001"
       x="-0.14999999999999999"
       y="-0.14999999999999999">
      <feFlood
         flood-opacity="0.5"
         flood-color="rgb(0,0,0)"
         result="flood"
         id="feFlood5204" />
      <feComposite
         in="flood"
         in2="SourceGraphic"
         operator="in"
         result="composite1"
         id="feComposite5206" />
      <feGaussianBlur
         in="composite1"
         stdDeviation="0.1"
         result="blur"
         id="feGaussianBlur5208" />
      <feOffset
         dx="-0.40000000000000002"
         dy="0.40000000000000002"
         result="offset"
         id="feOffset5210" />
      <feComposite
         in="SourceGraphic"
         in2="offset"
         operator="over"
         result="composite2"
         id="feComposite5212" />
    </filter>
    <filter
       y="-0.14999999999999999"
       x="-0.14999999999999999"
       height="1.3500000000000001"
       width="1.3500000000000001"
       id="filter5372"
       inkscape:label="Std Shadow"
       style="color-interpolation-filters:sRGB;">
      <feFlood
         id="feFlood5374"
         result="flood"
         flood-color="rgb(0,0,0)"
         flood-opacity="0.5" />
      <feComposite
         id="feComposite5376"
         result="composite1"
         operator="in"
         in2="SourceGraphic"
         in="flood" />
      <feGaussianBlur
         id="feGaussianBlur5378"
         result="blur"
         stdDeviation="0.1"
         in="composite1" />
      <feOffset
         id="feOffset5380"
         result="offset"
         dy="0.20000000000000001"
         dx="-0.20000000000000001" />
      <feComposite
         id="feComposite5382"
         result="composite2"
         operator="over"
         in2="offset"
         in="SourceGraphic" />
    </filter>
    <filter
       y="-0.15000001"
       x="-0.15000001"
       height="1.35"
       width="1.35"
       id="filter5372-1"
       inkscape:label="Std Shadow"
       style="color-interpolation-filters:sRGB">
      <feFlood
         id="feFlood5374-9"
         result="flood"
         flood-color="rgb(0,0,0)"
         flood-opacity="0.5" />
      <feComposite
         id="feComposite5376-7"
         result="composite1"
         operator="in"
         in2="SourceGraphic"
         in="flood" />
      <feGaussianBlur
         id="feGaussianBlur5378-7"
         result="blur"
         stdDeviation="0.1"
         in="composite1" />
      <feOffset
         id="feOffset5380-4"
         result="offset"
         dy="0.20000000000000001"
         dx="-0.20000000000000001" />
      <feComposite
         id="feComposite5382-0"
         result="composite2"
         operator="over"
         in2="offset"
         in="SourceGraphic" />
    </filter>
    <filter
       y="-0.15000001"
       x="-0.15000001"
       height="1.35"
       width="1.35"
       id="filter16116"
       inkscape:label="Std Shadow"
       style="color-interpolation-filters:sRGB">
      <feFlood
         id="feFlood16118"
         result="flood"
         flood-color="rgb(0,0,0)"
         flood-opacity="0.5" />
      <feComposite
         id="feComposite16120"
         result="composite1"
         operator="in"
         in2="SourceGraphic"
         in="flood" />
      <feGaussianBlur
         id="feGaussianBlur16122"
         result="blur"
         stdDeviation="0.1"
         in="composite1" />
      <feOffset
         id="feOffset16124"
         result="offset"
         dy="0.20000000000000001"
         dx="-0.20000000000000001" />
      <feComposite
         id="feComposite16126"
         result="composite2"
         operator="over"
         in2="offset"
         in="SourceGraphic" />
    </filter>
    <filter
       y="-0.15000001"
       x="-0.15000001"
       height="1.35"
       width="1.35"
       id="filter16128"
       inkscape:label="Std Shadow"
       style="color-interpolation-filters:sRGB">
      <feFlood
         id="feFlood16130"
         result="flood"
         flood-color="rgb(0,0,0)"
         flood-opacity="0.5" />
      <feComposite
         id="feComposite16132"
         result="composite1"
         operator="in"
         in2="SourceGraphic"
         in="flood" />
      <feGaussianBlur
         id="feGaussianBlur16134"
         result="blur"
         stdDeviation="0.1"
         in="composite1" />
      <feOffset
         id="feOffset16136"
         result="offset"
         dy="0.20000000000000001"
         dx="-0.20000000000000001" />
      <feComposite
         id="feComposite16138"
         result="composite2"
         operator="over"
         in2="offset"
         in="SourceGraphic" />
    </filter>
    <filter
       y="-0.15000001"
       x="-0.15000001"
       height="1.35"
       width="1.35"
       id="filter5372-1-1"
       inkscape:label="Std Shadow"
       style="color-interpolation-filters:sRGB">
      <feFlood
         id="feFlood5374-9-5"
         result="flood"
         flood-color="rgb(0,0,0)"
         flood-opacity="0.5" />
      <feComposite
         id="feComposite5376-7-1"
         result="composite1"
         operator="in"
         in2="SourceGraphic"
         in="flood" />
      <feGaussianBlur
         id="feGaussianBlur5378-7-7"
         result="blur"
         stdDeviation="0.1"
         in="composite1" />
      <feOffset
         id="feOffset5380-4-3"
         result="offset"
         dy="0.20000000000000001"
         dx="-0.20000000000000001" />
      <feComposite
         id="feComposite5382-0-9"
         result="composite2"
         operator="over"
         in2="offset"
         in="SourceGraphic" />
    </filter>
    <filter
       y="-0.15000001"
       x="-0.15000001"
       height="1.35"
       width="1.35"
       id="filter16209"
       inkscape:label="Std Shadow"
       style="color-interpolation-filters:sRGB">
      <feFlood
         id="feFlood16211"
         result="flood"
         flood-color="rgb(0,0,0)"
         flood-opacity="0.5" />
      <feComposite
         id="feComposite16213"
         result="composite1"
         operator="in"
         in2="SourceGraphic"
         in="flood" />
      <feGaussianBlur
         id="feGaussianBlur16215"
         result="blur"
         stdDeviation="0.1"
         in="composite1" />
      <feOffset
         id="feOffset16217"
         result="offset"
         dy="0.20000000000000001"
         dx="-0.20000000000000001" />
      <feComposite
         id="feComposite16219"
         result="composite2"
         operator="over"
         in2="offset"
         in="SourceGraphic" />
    </filter>
    <filter
       y="-0.15000001"
       x="-0.15000001"
       height="1.35"
       width="1.35"
       id="filter5372-1-1-3"
       inkscape:label="Std Shadow"
       style="color-interpolation-filters:sRGB">
      <feFlood
         id="feFlood5374-9-5-8"
         result="flood"
         flood-color="rgb(0,0,0)"
         flood-opacity="0.5" />
      <feComposite
         id="feComposite5376-7-1-3"
         result="composite1"
         operator="in"
         in2="SourceGraphic"
         in="flood" />
      <feGaussianBlur
         id="feGaussianBlur5378-7-7-7"
         result="blur"
         stdDeviation="0.1"
         in="composite1" />
      <feOffset
         id="feOffset5380-4-3-6"
         result="offset"
         dy="0.20000000000000001"
         dx="-0.20000000000000001" />
      <feComposite
         id="feComposite5382-0-9-7"
         result="composite2"
         operator="over"
         in2="offset"
         in="SourceGraphic" />
    </filter>
    <filter
       y="-0.15000001"
       x="-0.15000001"
       height="1.35"
       width="1.35"
       id="filter16306"
       inkscape:label="Std Shadow"
       style="color-interpolation-filters:sRGB">
      <feFlood
         id="feFlood16308"
         result="flood"
         flood-color="rgb(0,0,0)"
         flood-opacity="0.5" />
      <feComposite
         id="feComposite16310"
         result="composite1"
         operator="in"
         in2="SourceGraphic"
         in="flood" />
      <feGaussianBlur
         id="feGaussianBlur16312"
         result="blur"
         stdDeviation="0.1"
         in="composite1" />
      <feOffset
         id="feOffset16314"
         result="offset"
         dy="0.20000000000000001"
         dx="-0.20000000000000001" />
      <feComposite
         id="feComposite16316"
         result="composite2"
         operator="over"
         in2="offset"
         in="SourceGraphic" />
    </filter>
  </defs>
  <sodipodi:namedview
     id="base"
     pagecolor="#ffffff"
     bordercolor="#666666"
     borderopacity="1.0"
     inkscape:pageopacity="0.0"
     inkscape:pageshadow="2"
     inkscape:zoom="22.627417"
     inkscape:cx="8.8241098"
     inkscape:cy="8.9228809"
     inkscape:document-units="px"
     inkscape:current-layer="g5245"
     showgrid="true"
     units="px"
     showborder="true"
     inkscape:showpageshadow="true"
     inkscape:window-width="1920"
     inkscape:window-height="1027"
     inkscape:window-x="1912"
     inkscape:window-y="-8"
     inkscape:window-maximized="1"
     showguides="true"
     objecttolerance="2"
     guidetolerance="10000">
    <inkscape:grid
       type="xygrid"
       id="grid4136"
       empcolor="#ab3fff"
       empopacity="0.25098039"
       dotted="true"
       color="#0606ff"
       opacity="0.1254902"
       spacingx="0.99999996"
       spacingy="1" />
  </sodipodi:namedview>
  <metadata
     id="metadata7">
    <rdf:RDF>
      <cc:Work
         rdf:about="">
        <dc:format>image/svg+xml</dc:format>
        <dc:type
           rdf:resource="http://purl.org/dc/dcmitype/StillImage" />
        <dc:title></dc:title>
      </cc:Work>
    </rdf:RDF>
  </metadata>
  <g
     inkscape:label="Layer 1"
     inkscape:groupmode="layer"
     id="layer1"
     transform="translate(0,-1028.3622)">
    <g
       id="g17108"
       transform="matrix(1.3740271,0,0,1.3740271,2.4620775,-366.15044)" />
    <g
       id="g5245"
       transform="translate(0.39774721,0.61871845)">
      <path
         style="fill:#a8cae7"
         d="m 16.839103,1051.4728 c -0.04311,-0.07 -0.340423,-0.2669 -0.660705,-0.438 -0.32028,-0.1712 -0.84375,-0.464 -1.163264,-0.651 -0.319517,-0.1869 -1.215554,-0.7026 -1.991194,-1.1463 -0.775641,-0.4435 -1.50641,-0.8635 -1.623931,-0.9334 -0.117521,-0.07 -0.761548,-0.4425 -1.4311695,-0.8284 -0.6696228,-0.3857 -2.1135326,-1.2206 -3.2086889,-1.8552 -1.0951562,-0.6346 -2.1951771,-1.271 -2.4444911,-1.4143 -0.249314,-0.143 -0.977344,-0.5627 -1.6178444,-0.9323 -0.6405006,-0.3697 -1.3325535,-0.7638 -1.5378952,-0.8758 -0.6360937,-0.347 -1.05782143,-0.6537 -1.05782143,-0.7692 0,-0.062 0.95788893,-1.3168 2.12864193,-2.7909 2.0813483,-2.6207 2.1253132,-2.6883 1.9788093,-3.042 -0.1751221,-0.4227 -0.1622437,-0.4545 0.9263028,-2.2775 1.2467095,-2.0881 2.5093804,-2.9609 4.4143527,-3.0514 0.5873348,-0.027 1.2923198,0.01 1.5666338,0.083 0.274313,0.074 1.282354,0.5819 2.240092,1.1287 1.34935,0.7704 1.773675,0.9603 1.88498,0.8434 0.079,-0.083 0.63165,-0.9908 1.228105,-2.0175 1.232858,-2.1221 1.328494,-2.2502 1.761185,-2.3589 0.727596,-0.1826 1.782829,0.5718 1.782829,1.2748 0,0.1856 -0.513083,1.2286 -1.182271,2.4035 -0.650248,1.1416 -1.182271,2.1303 -1.182271,2.1968 0,0.067 0.76302,0.5628 1.6956,1.1027 2.546457,1.4738 3.282212,2.4612 3.383398,4.5404 0.06724,1.3815 -0.124648,2.0265 -1.125638,3.7835 -0.717884,1.2601 -0.819942,1.3815 -1.283536,1.5284 l -0.50364,0.1593 -0.973225,2.4438 c -1.55739,3.9108 -1.75506,4.2949 -2.003344,3.893 z m 4.212126,-14.1863 c -0.291076,-0.4927 -0.828494,-0.9085 -2.381083,-1.8419 l -1.281657,-0.7705 -0.687899,0.2234 -0.687897,0.2233 0.662835,0.2953 c 1.782249,0.7938 3.211056,1.4936 3.774075,1.8483 0.777488,0.49 0.880219,0.4937 0.601626,0.022 z m -5.680851,-2.6637 c -0.300697,-0.2786 -0.388861,-0.4833 -0.486609,-1.1298 -0.07311,-0.4836 -3.172573,-2.2497 -4.258169,-2.4264 -0.8177259,-0.133 -1.8153933,0.014 -2.3025405,0.3381 -0.2967003,0.1977 -0.3014404,0.2155 -0.069514,0.2604 0.1368947,0.026 0.3329027,0.1202 0.4355736,0.2079 0.1854867,0.1587 1.2928672,0.6488 2.3645422,1.0465 0.308013,0.1144 0.70678,0.3056 0.886147,0.4251 0.17937,0.1196 0.627388,0.3234 0.995598,0.4532 0.368209,0.1297 0.934222,0.3841 1.257807,0.5653 0.323584,0.1813 0.637347,0.2992 0.697251,0.2621 0.0599,-0.036 0.215169,0.013 0.345036,0.1115 0.386949,0.293 0.484721,0.2104 0.134878,-0.1139 z m 2.315666,-3.7859 c 1.144248,-1.7133 1.248552,-1.9096 1.072878,-2.0181 -0.107517,-0.067 -0.268844,-0.045 -0.419902,0.055 -0.237638,0.1578 -1.191644,1.9342 -1.377607,2.5651 -0.09026,0.3062 -0.08766,0.3075 0.164194,0.083 0.14074,-0.1257 0.392938,-0.4337 0.560437,-0.6846 z"
         id="path5257"
         inkscape:connector-curvature="0" />
      <path
         style="fill:#8cb5da"
         d="m 16.156093,1051.0469 c -0.37646,-0.2234 -1.412502,-0.826 -2.302317,-1.3391 -0.889815,-0.5131 -2.73789,-1.5789 -4.1068356,-2.3684 -1.3689453,-0.7894 -2.965011,-1.7107 -3.5468128,-2.047 -0.5818018,-0.3366 -2.1702748,-1.2531 -3.52994,-2.037 -1.3596652,-0.7838 -2.49800439,-1.4907 -2.52964261,-1.5708 -0.0316383,-0.08 0.92586771,-1.3816 2.12779101,-2.8922 2.0210109,-2.54 2.1749992,-2.7691 2.0481109,-3.0476 -0.1173921,-0.2576 -0.068638,-0.4281 0.3376405,-1.1803 0.2611646,-0.4835 0.7318281,-1.2585 1.0459189,-1.7224 1.2380207,-1.8282 3.4492753,-2.6808 5.4244047,-2.0914 0.337547,0.1002 1.356726,0.6048 2.264844,1.1201 0.908115,0.5154 1.70167,0.9369 1.763453,0.9369 0.06178,0 0.677962,-0.9714 1.369285,-2.159 0.876095,-1.5049 1.353579,-2.2031 1.575868,-2.3044 0.705522,-0.3214 1.791719,0.3359 1.791719,1.0842 0,0.1765 -0.531674,1.2541 -1.182271,2.3963 -0.650248,1.1416 -1.18227,2.1528 -1.18227,2.2473 0,0.094 0.727613,0.5871 1.616918,1.0949 0.889305,0.5077 1.849271,1.1506 2.133256,1.4288 0.766247,0.7501 1.273566,1.91 1.333248,3.0482 0.06737,1.2848 -0.127794,2.0058 -0.930537,3.438 -0.80707,1.4399 -1.059627,1.7449 -1.521258,1.8372 -0.30975,0.063 -0.418589,0.2719 -1.313743,2.534 -1.281784,3.239 -1.641822,4.0243 -1.83899,4.0109 -0.08985,-0.01 -0.47138,-0.1939 -0.84784,-0.4172 z m 5.92469,-11.2166 c 0.221604,-0.8829 -0.321377,-2.2559 -1.238901,-3.1327 -0.498573,-0.4764 -3.203969,-2.1476 -3.476696,-2.1476 -0.07347,0 -0.311129,0.065 -0.52811,0.1426 -0.216979,0.078 -0.551496,0.1037 -0.743373,0.055 -0.48439,-0.1215 -1.057656,-0.7671 -1.057656,-1.1912 0,-0.1897 -0.08795,-0.4179 -0.195427,-0.5071 -0.529493,-0.4395 -3.183921,-1.8903 -3.77763,-2.0647 -1.7093438,-0.5024 -3.7372521,0.2353 -4.574558,1.6641 -0.1809827,0.3088 -0.2735158,0.5927 -0.21162,0.6493 0.060495,0.055 0.6980142,0.2987 1.4167105,0.5408 1.9487317,0.6566 2.7204985,0.9448 3.5468135,1.3249 0.410682,0.1888 0.970705,0.4143 1.244495,0.5009 0.514674,0.1627 2.023349,0.7985 3.111239,1.3111 0.342237,0.1613 1.112268,0.5002 1.711181,0.753 0.598915,0.2529 1.088934,0.5018 1.088934,0.5532 0,0.051 0.322014,0.2434 0.715586,0.4268 0.393571,0.1835 1.135094,0.583 1.647827,0.8875 0.512733,0.3047 1.001687,0.5539 1.086562,0.5539 0.08488,0 0.190457,-0.144 0.234623,-0.3199 z m -5.509707,-6.8725 c 0.485282,-0.6316 1.50357,-2.0734 2.414464,-3.4187 0.306672,-0.4528 0.309774,-0.4766 0.09354,-0.7154 -0.297597,-0.3289 -0.629463,-0.312 -0.992055,0.051 -0.489625,0.4896 -2.304005,4.2541 -2.304206,4.7808 -9.6e-5,0.249 0.19142,0.079 0.788268,-0.6974 z"
         id="path5255"
         inkscape:connector-curvature="0" />
      <path
         style="fill:#f7c728"
         d="m 16.156093,1051.0469 c -0.37646,-0.2234 -1.412502,-0.826 -2.302317,-1.3391 -0.889815,-0.5131 -2.73789,-1.5789 -4.1068356,-2.3684 -1.3689453,-0.7894 -2.965011,-1.7107 -3.5468128,-2.047 -0.5818018,-0.3366 -2.1702748,-1.2531 -3.52994,-2.037 -1.3596652,-0.7838 -2.49780838,-1.4902 -2.52920702,-1.5697 -0.06352305,-0.1608 4.14042842,-5.5178 4.33020642,-5.5178 0.073745,0 0.070292,-0.093 -0.00898,-0.2407 -0.2278624,-0.4258 -0.1436244,-0.6774 0.6715442,-2.0056 0.777442,-1.2669 1.4905222,-2.1187 1.9997435,-2.3891 0.1368946,-0.073 0.00563,0.1123 -0.2917128,0.4112 -0.5147047,0.5174 -1.3883565,2.029 -1.3883565,2.4021 0,0.2257 0.5353996,0.5775 0.8786695,0.5775 0.1458483,0 0.4138297,0.1037 0.5955141,0.2309 0.1816843,0.1268 0.4929636,0.2701 0.6917316,0.3182 0.198768,0.048 0.9672501,0.3644 1.7077378,0.7027 0.7404878,0.3382 1.3793598,0.615 1.4197178,0.615 0.06938,0 0.656908,0.2629 1.924704,0.8611 0.308014,0.1453 0.952039,0.4849 1.43117,0.7547 0.795298,0.4476 0.997673,0.5509 1.368946,0.6974 0.06845,0.026 0.488465,0.2709 0.933371,0.5422 0.444907,0.2713 1.004167,0.5825 1.242798,0.6916 0.238631,0.1091 0.546644,0.2987 0.684472,0.4213 0.13783,0.1227 0.726618,0.4912 1.30842,0.819 0.581802,0.3279 1.154775,0.6807 1.273273,0.7839 0.284281,0.2478 0.501236,0.071 0.944076,-0.7721 0.294144,-0.5596 0.331338,-0.7692 0.332527,-1.8746 0.0015,-1.3553 -0.145066,-1.7882 -0.96891,-2.8623 l -0.381819,-0.4977 0.447558,0.4185 c 0.906549,0.8477 1.451996,2.6857 1.204309,4.0583 -0.146906,0.8139 -0.301399,1.1728 -1.17561,2.7303 -0.552471,0.9842 -0.899137,1.3176 -1.370135,1.3176 -0.09944,0 -0.180819,0.059 -0.180819,0.1288 0,0.1575 -2.151905,5.5623 -2.424503,6.0894 -0.107432,0.2077 -0.263895,0.3726 -0.347697,0.3666 -0.0838,-0.01 -0.460379,-0.1939 -0.836838,-0.4172 z m -0.551837,-16.7553 c -0.519362,-0.456 -0.726347,-1.185 -0.403509,-1.4209 0.109932,-0.081 0.737836,-1.0655 1.395343,-2.1891 0.657507,-1.1236 1.233505,-2.0786 1.279994,-2.1223 0.0465,-0.043 0.222574,-0.1213 0.391298,-0.1725 0.271795,-0.083 0.255263,-0.044 -0.145009,0.333 -0.305691,0.2883 -0.79725,1.1227 -1.520153,2.5805 -0.587606,1.1849 -1.068374,2.2496 -1.068374,2.3661 0,0.2146 0.22478,0.5103 0.388037,0.5103 0.04915,0 0.63997,-0.7861 1.312942,-1.7469 0.672972,-0.9609 1.443269,-2.0598 1.711771,-2.4421 0.438963,-0.6251 0.47456,-0.7313 0.353046,-1.0532 -0.07432,-0.1969 -0.08806,-0.358 -0.03053,-0.358 0.156825,0 0.620471,0.6286 0.620471,0.8413 0,0.1016 -0.560023,1.1767 -1.244496,2.3883 -0.684473,1.2115 -1.244495,2.2875 -1.244495,2.3912 0,0.1036 -0.142641,0.2533 -0.31698,0.3328 -0.544315,0.2479 -1.011001,0.1727 -1.479354,-0.2385 z"
         id="path5253"
         inkscape:connector-curvature="0" />
      <path
         style="fill:#6297c6"
         d="m 16.834717,1051.1937 c -0.0579,-0.1509 1.130618,-3.5169 1.917699,-5.4311 0.295621,-0.7191 0.350231,-0.9748 0.248662,-1.1646 -0.07158,-0.1337 -0.173776,-0.1952 -0.227095,-0.1365 -0.109161,0.1202 -0.996049,2.3907 -1.305579,3.3424 -0.25365,0.7799 -1.326784,2.8264 -1.514764,2.8886 -0.354468,0.1174 -0.182574,-0.489 0.955262,-3.3705 0.671322,-1.7001 1.191955,-3.1655 1.156961,-3.2567 -0.03499,-0.091 -0.138643,-0.137 -0.23033,-0.1016 -0.179707,0.069 -0.325108,0.3946 -1.075928,2.4093 -0.546269,1.4659 -1.256849,2.9293 -1.674955,3.4494 -0.247996,0.3086 -0.287785,0.3222 -0.365045,0.1245 -0.08486,-0.2173 0.366664,-1.4097 1.836494,-4.85 0.516656,-1.2095 0.59785,-1.4957 0.468356,-1.6518 -0.138888,-0.1672 -0.17347,-0.1637 -0.304993,0.031 -0.08159,0.1212 -0.467838,1.0142 -0.858331,1.9841 -0.390491,0.9701 -0.853744,2.0342 -1.029448,2.3646 -0.852762,1.604 -1.085488,1.8851 -1.235856,1.4933 -0.05252,-0.1369 0.467495,-1.4596 1.378305,-3.5059 1.21319,-2.7257 1.312218,-3.049 0.933827,-3.049 -0.142839,0 -0.79036,1.3516 -1.393137,2.9079 -0.331078,0.8548 -1.252178,2.5761 -1.624676,3.0362 -0.09139,0.1128 -0.17227,0.1196 -0.287238,0.024 -0.127136,-0.1058 -0.04478,-0.3936 0.40068,-1.4016 0.80953,-1.8319 0.832614,-1.8828 1.527157,-3.3749 0.572903,-1.2307 0.699031,-1.814 0.392256,-1.814 -0.117552,0 -0.754262,1.2876 -1.389457,2.8098 -0.511878,1.2266 -1.199223,2.4665 -1.667784,3.0081 -0.26232,0.3034 -0.305723,0.3175 -0.380898,0.1241 -0.08219,-0.2114 0.264212,-1.0138 2.01198,-4.6601 0.705077,-1.4711 0.787715,-1.7797 0.476361,-1.7797 -0.17901,0 -0.577671,0.7583 -1.782902,3.391 -0.426995,0.9329 -1.473568,2.5825 -1.63834,2.5825 -0.394933,0 -0.227313,-0.4229 1.683557,-4.2475 0.683587,-1.3681 0.944912,-2.0141 0.881012,-2.1778 -0.08251,-0.2113 -0.118395,-0.1984 -0.391171,0.1406 -0.16518,0.2054 -0.588092,1.0174 -0.939805,1.8045 -0.656493,1.4693 -1.081688,2.2307 -1.8262866,3.2708 -0.3355791,0.4688 -0.4618071,0.5656 -0.594301,0.4557 -0.137062,-0.1139 0.030876,-0.5293 0.9065816,-2.2431 0.591145,-1.1569 1.049507,-2.1285 1.018586,-2.1595 -0.03092,-0.03 -0.418792,0.4774 -0.861933,1.1296 -1.05341,1.5505 -1.8971695,2.6657 -1.9653061,2.5976 -0.05854,-0.059 1.4927632,-3.1591 2.4126581,-4.8222 0.527938,-0.9545 0.624712,-1.4224 0.271379,-1.3123 -0.08552,0.026 -0.555001,0.8014 -1.043284,1.7215 -1.0421873,1.9641 -1.9872944,3.5053 -2.3757653,3.8742 -0.2427843,0.2306 -0.2862069,0.2383 -0.3536788,0.063 -0.045951,-0.1197 0.1873604,-0.6909 0.5795448,-1.4186 0.3610528,-0.6701 0.7774855,-1.4424 0.9254056,-1.7161 0.1479203,-0.2738 0.5580904,-1.0103 0.911489,-1.6365 0.5731567,-1.0157 0.7095977,-1.537 0.4022897,-1.537 -0.107348,0 -1.0624798,1.6149 -1.6639929,2.8135 -0.6194796,1.2344 -1.8329578,2.9111 -2.1068596,2.9111 -0.122074,0 -0.2219529,-0.051 -0.2219529,-0.1128 0,-0.063 0.72803,-1.3898 1.6178444,-2.9504 0.8898145,-1.5606 1.6178444,-2.9099 1.6178444,-2.9984 0,-0.089 -0.083302,-0.1608 -0.1851131,-0.1608 -0.2197788,0 -0.5376544,0.4866 -1.55311,2.3773 -0.6382048,1.1883 -1.9374786,3.0957 -2.2333403,3.2784 -0.046712,0.028 -0.1621283,0 -0.2564801,-0.054 -0.1348266,-0.084 0.00174,-0.3946 0.6380016,-1.4542 0.4452527,-0.7413 1.0180996,-1.7119 1.2729934,-2.1568 0.2548935,-0.4449 0.6626003,-1.1308 0.906015,-1.5239 0.4260226,-0.6882 0.485721,-1.1565 0.1300262,-1.02 -0.093711,0.036 -0.5796432,0.777 -1.0798502,1.6469 -1.118444,1.9449 -1.6288391,2.72 -2.2718318,3.4505 -0.3943576,0.448 -0.5329779,0.5358 -0.6687865,0.4229 -0.1438473,-0.1194 -0.1343374,-0.1947 0.059308,-0.4704 0.1268444,-0.1805 0.6678232,-1.0561 1.2021755,-1.946 0.5343523,-0.8899 1.2139309,-1.9964 1.5101747,-2.4592 0.5792246,-0.9047 0.6740799,-1.2562 0.3208382,-1.1888 -0.1272886,0.024 -0.7090628,0.8525 -1.4000577,1.9933 -1.1180142,1.8455 -2.3879951,3.5836 -2.6184336,3.5836 -0.2794858,0 -0.23305,-0.3263 0.129668,-0.9112 0.8349233,-1.3466 1.5819248,-2.5158 2.3332037,-3.6518 0.7073667,-1.0696 0.947298,-1.6593 0.6750535,-1.6593 -0.2348306,0 -1.1075343,1.2474 -2.1213807,3.0323 -0.240146,0.4227 -1.6364341,2.1886 -1.9086629,2.4138 -0.1529187,0.1265 -0.2149166,0.1265 -0.3182802,0 -0.094362,-0.1155 0.2613694,-0.7505 1.3428364,-2.3972 0.8091628,-1.2321 1.6178523,-2.434 1.7970876,-2.6712 0.3175133,-0.4201 0.3795566,-0.8589 0.1288851,-0.9117 -0.068448,-0.015 -0.6844727,0.8207 -1.3689453,1.8556 -1.4460274,2.1865 -2.5220423,3.5282 -2.8312278,3.5303 -0.42250782,0 -0.36635713,-0.093 2.3096017,-3.9618 1.1240938,-1.625 1.2225984,-1.8129 1.0961419,-2.0904 -0.2299527,-0.5047 -0.1718911,-0.6839 0.6614301,-2.0417 0.7774415,-1.2669 1.4905217,-2.1187 1.9997429,-2.3891 0.1368947,-0.073 0.00563,0.1123 -0.2917127,0.4112 -0.5147047,0.5174 -1.3883565,2.029 -1.3883565,2.4021 0,0.2257 0.5353996,0.5775 0.8786695,0.5775 0.1458483,0 0.4138297,0.1037 0.5955141,0.2309 0.1816843,0.1268 0.4929636,0.2701 0.6917316,0.3182 0.198768,0.048 0.9672501,0.3644 1.7077378,0.7027 0.7404879,0.3382 1.3793599,0.615 1.4197169,0.615 0.06938,0 0.656909,0.2629 1.924705,0.8611 0.308014,0.1453 0.952039,0.4849 1.43117,0.7547 0.832968,0.469 0.98575,0.5472 1.337833,0.6854 0.08555,0.033 0.519577,0.2829 0.964484,0.5542 0.444907,0.2713 1.004167,0.5825 1.242797,0.6916 0.238632,0.1091 0.546645,0.2987 0.684473,0.4213 0.137829,0.1227 0.726618,0.4912 1.30842,0.8191 0.581802,0.3278 1.154775,0.6806 1.273273,0.7838 0.284281,0.2478 0.501236,0.071 0.944076,-0.7721 0.294144,-0.5596 0.331338,-0.7692 0.332527,-1.8746 0.0015,-1.3553 -0.145066,-1.7882 -0.96891,-2.8623 l -0.38182,-0.4977 0.447559,0.4185 c 0.906548,0.8477 1.451996,2.6857 1.204308,4.0583 -0.146905,0.8139 -0.301398,1.1729 -1.175609,2.7303 -0.547434,0.9752 -0.899791,1.3176 -1.356132,1.3176 -0.09175,0 -0.312046,0.3501 -0.489548,0.7778 -0.177504,0.4278 -0.720437,1.7299 -1.206524,2.8935 -0.486087,1.1637 -0.940661,2.2697 -1.010167,2.4579 -0.134121,0.3633 -0.319281,0.445 -0.418998,0.1852 z m -1.230461,-16.9021 c -0.519362,-0.456 -0.726347,-1.185 -0.403509,-1.4209 0.109932,-0.081 0.737836,-1.0655 1.395343,-2.1891 0.657507,-1.1236 1.233505,-2.0786 1.279994,-2.1223 0.0465,-0.043 0.222574,-0.1213 0.391298,-0.1725 0.271795,-0.083 0.255263,-0.044 -0.145009,0.333 -0.305691,0.2883 -0.79725,1.1227 -1.520153,2.5805 -0.587606,1.1849 -1.068374,2.2496 -1.068374,2.3661 0,0.2146 0.22478,0.5103 0.388037,0.5103 0.04915,0 0.63997,-0.7861 1.312942,-1.7469 0.672972,-0.9609 1.443269,-2.0598 1.711771,-2.4421 0.438963,-0.6251 0.47456,-0.7313 0.353046,-1.0532 -0.07432,-0.1969 -0.08806,-0.358 -0.03053,-0.358 0.156825,0 0.620471,0.6286 0.620471,0.8413 0,0.1016 -0.560023,1.1767 -1.244496,2.3883 -0.684473,1.2115 -1.244495,2.2875 -1.244495,2.3912 0,0.1036 -0.142641,0.2533 -0.31698,0.3328 -0.544315,0.2479 -1.011001,0.1727 -1.479354,-0.2385 z"
         id="path5251"
         inkscape:connector-curvature="0" />
      <path
         style="fill:#dfa919"
         d="m 16.834717,1051.1937 c -0.05596,-0.1458 1.115529,-3.4679 1.87553,-5.3187 0.425256,-1.0356 0.50272,-1.5259 0.232445,-1.4712 -0.202064,0.041 -0.742535,1.2631 -1.353107,3.0598 -0.367718,1.0822 -1.419008,3.1571 -1.635945,3.2289 -0.354375,0.1174 -0.182802,-0.4885 0.952329,-3.363 0.669709,-1.696 1.204085,-3.176 1.187498,-3.289 -0.01658,-0.113 -0.103063,-0.2298 -0.192164,-0.2594 -0.09583,-0.031 -0.126515,0 -0.07512,0.087 0.04779,0.077 0.03354,0.1406 -0.03167,0.1406 -0.121687,0 -0.39911,0.6433 -1.196858,2.7747 -0.657396,1.7565 -1.578704,3.4044 -1.820028,3.2553 -0.06321,-0.04 -0.114933,-0.1461 -0.114933,-0.2375 0,-0.1334 1.304701,-3.3436 2.418559,-5.9509 0.185332,-0.4338 0.185001,-0.4755 -0.0044,-0.548 -0.261574,-0.1002 -0.337239,0.031 -1.118181,1.9509 -0.952162,2.3402 -1.926569,4.2313 -2.180213,4.2313 -0.361541,0 -0.119421,-0.7335 1.252819,-3.7957 1.119846,-2.499 1.282275,-3.0491 0.900321,-3.0491 -0.105487,0 -0.944934,1.8141 -1.526058,3.298 -0.263561,0.673 -1.193321,2.3727 -1.515447,2.7706 -0.09139,0.1128 -0.172271,0.1196 -0.287237,0.024 -0.127137,-0.1058 -0.04479,-0.3936 0.400678,-1.4016 0.809035,-1.8307 0.832756,-1.8832 1.522923,-3.3659 0.583616,-1.2539 0.713395,-1.8216 0.435914,-1.9068 -0.120922,-0.037 -0.510385,0.7504 -1.375476,2.7817 -0.581298,1.365 -1.247384,2.5723 -1.721187,3.12 -0.262321,0.3034 -0.305724,0.3175 -0.380899,0.1241 -0.08202,-0.211 0.25778,-0.9986 1.999608,-4.6353 0.743508,-1.5523 0.826852,-1.8404 0.549238,-1.8978 -0.186604,-0.038 -0.492567,0.54 -1.84275,3.4844 -0.428222,0.9338 -1.474521,2.5824 -1.638993,2.5824 -0.396699,0 -0.287575,-0.2888 1.336921,-3.5381 1.34867,-2.6977 1.467618,-3.007 1.196753,-3.1109 -0.245197,-0.094 -0.295207,-0.09 -0.262025,0.022 0.01521,0.052 -0.121846,0.3454 -0.30457,0.6534 -0.182727,0.3079 -0.583964,1.1278 -0.891639,1.822 -0.536322,1.2099 -1.136772,2.257 -1.7929182,3.1267 -0.2364776,0.3134 -0.3443919,0.3748 -0.4721415,0.2688 -0.1335499,-0.1109 0.042416,-0.5444 0.9092067,-2.2408 0.591144,-1.1568 1.049507,-2.1285 1.018586,-2.1595 -0.03092,-0.03 -0.418792,0.4774 -0.861933,1.1296 -1.0534102,1.5505 -1.8971697,2.6657 -1.9653063,2.5976 -0.05766,-0.058 1.4878155,-3.1502 2.3837283,-4.7699 0.699738,-1.265 0.730279,-1.3559 0.486964,-1.4493 -0.23799,-0.091 -0.172905,-0.1904 -1.4653377,2.2306 -1.002706,1.8783 -1.8529865,3.2324 -2.222393,3.5389 -0.1664733,0.1382 -0.210344,0.1333 -0.2734278,-0.031 -0.043664,-0.1138 0.1998434,-0.7061 0.58132,-1.414 0.3610528,-0.6701 0.7775966,-1.4431 0.9256527,-1.7179 0.1480561,-0.2746 0.5389809,-0.9747 0.8687221,-1.5555 0.6114447,-1.0772 0.7813367,-1.6162 0.5093907,-1.6162 -0.162689,0 -1.0029397,1.3676 -1.7285741,2.8135 -0.6194796,1.2344 -1.8329579,2.9111 -2.1068596,2.9111 -0.1220741,0 -0.2219529,-0.051 -0.2219529,-0.1128 0,-0.063 0.7283907,-1.3904 1.618646,-2.9518 0.8902554,-1.5615 1.6322861,-2.9227 1.6489569,-3.025 0.016671,-0.1026 -0.055904,-0.204 -0.1612774,-0.2257 -0.1853532,-0.038 -1.1056103,1.426 -1.9062846,3.0337 -0.2892781,0.5807 -1.7072634,2.5737 -1.9285757,2.7105 -0.050748,0.031 -0.1694682,0.01 -0.26382,-0.049 -0.1348266,-0.084 0.00175,-0.3945 0.6380017,-1.4541 0.4452527,-0.7414 1.0177125,-1.712 1.2721331,-2.1569 0.2544205,-0.4449 0.6569671,-1.117 0.8945475,-1.4934 0.4386789,-0.6951 0.5052661,-1.1168 0.1926551,-1.2198 -0.104829,-0.034 -0.1386795,0 -0.085992,0.084 0.04779,0.077 0.038418,0.1405 -0.020827,0.1405 -0.059245,0 -0.5183623,0.7141 -1.020259,1.5868 -1.1215958,1.9503 -1.6315734,2.7249 -2.2749042,3.4558 -0.3943576,0.4481 -0.5329779,0.5358 -0.6687865,0.423 -0.1438473,-0.1194 -0.1343374,-0.1948 0.059308,-0.4704 0.1268443,-0.1806 0.6678232,-1.0562 1.2021755,-1.946 0.5343524,-0.89 1.2103104,-1.9909 1.5021291,-2.4467 0.5958731,-0.9307 0.6994628,-1.2591 0.4157516,-1.3178 -0.1337557,-0.027 -0.55468,0.5637 -1.3689452,1.9234 -1.1118762,1.8567 -2.4994325,3.7699 -2.7341777,3.7699 -0.2817183,0 -0.2363152,-0.3246 0.1274317,-0.9112 0.8315954,-1.3412 1.5807868,-2.514 2.3243931,-3.6386 0.8517169,-1.2882 0.9912638,-1.7015 0.599946,-1.7763 -0.1368945,-0.026 -0.2063852,0 -0.1544237,0.049 0.051962,0.054 -0.013011,0.2137 -0.1443842,0.3558 -0.2124851,0.2296 -1.1910945,1.7665 -1.7386546,2.7305 -0.240146,0.4228 -1.6364341,2.1886 -1.9086629,2.4139 -0.1529187,0.1264 -0.2149166,0.1264 -0.3182803,0 -0.094356,-0.1156 0.2608515,-0.7507 1.3406199,-2.3973 0.8079435,-1.2321 1.5900328,-2.3935 1.7379761,-2.5809 0.1479434,-0.1875 0.3183753,-0.5131 0.3787374,-0.7234 0.2447211,-0.8534 -0.3452238,-0.2559 -1.5574695,1.577 -1.4460274,2.1866 -2.5220423,3.5283 -2.8312279,3.5303 -0.11978269,9e-4 -0.21778671,-0.057 -0.21778671,-0.1294 0,-0.1153 1.88489281,-2.9495 3.33370601,-5.0128 0.4390295,-0.6254 0.4911961,-0.7662 0.3766743,-1.0176 -0.1615569,-0.3545 -0.064112,-0.7656 0.2799881,-1.1812 0.2213233,-0.2673 0.2389103,-0.2729 0.12482,-0.04 -0.2661914,0.5449 -0.165067,0.9947 0.2863483,1.2737 0.5291978,0.327 0.8909627,0.3417 0.396966,0.016 -0.3642907,-0.2403 -0.5895167,-0.8771 -0.3101456,-0.8771 0.1308312,0 1.5393488,0.7571 3.4764156,1.8689 0.6455496,0.3704 3.3280438,1.8995 7.2009958,4.1049 0.180512,0.1026 0.524212,0.3042 0.763776,0.4477 0.239566,0.1435 1.177606,0.6962 2.08453,1.228 1.027074,0.6023 1.650866,1.0436 1.654016,1.1701 0.0034,0.1389 0.121111,0.067 0.373348,-0.2279 0.412844,-0.483 0.465452,-0.4336 0.167061,0.157 -0.293405,0.5808 -0.676602,0.9583 -0.972526,0.9583 -0.213198,0 -0.354835,0.2376 -0.797692,1.3377 -1.19585,2.9714 -2.19136,5.2581 -2.288879,5.2581 -0.05677,0 -0.130337,-0.071 -0.163481,-0.157 z m -0.160907,-17.4215 c 0.278314,-0.4278 0.723932,-1.0858 0.990265,-1.4623 1.093011,-1.5449 1.830062,-2.69 1.882469,-2.9246 0.05104,-0.2283 0.06348,-0.2308 0.15115,-0.029 0.06889,0.1585 -0.255507,0.8417 -1.163011,2.4493 -0.692198,1.2263 -1.258544,2.2875 -1.258544,2.3582 0,0.1809 -0.422779,0.3864 -0.794895,0.3864 l -0.313459,0 0.506025,-0.7778 z m -1.447915,-0.4615 c -0.05142,-0.084 -0.03211,-0.2127 0.04292,-0.2877 0.191171,-0.1912 0.312285,-0.028 0.169199,0.227 -0.08707,0.1555 -0.143512,0.1717 -0.21213,0.061 z"
         id="path5249"
         inkscape:connector-curvature="0" />
      <path
         style="fill:#3f7aaa"
         d="m 19.289106,1044.624 c -0.143145,-0.1334 -0.327323,-0.2424 -0.409285,-0.2424 -0.08196,0 -0.32231,-0.132 -0.534114,-0.2932 -0.211802,-0.1614 -0.506042,-0.3315 -0.653868,-0.3783 -0.147826,-0.046 -0.336691,-0.1667 -0.4197,-0.2667 -0.08301,-0.1002 -0.231808,-0.1818 -0.330665,-0.1818 -0.09886,0 -0.363296,-0.1402 -0.587644,-0.3112 -0.224349,-0.1712 -0.453335,-0.3112 -0.508861,-0.3112 -0.05552,0 -0.274248,-0.1319 -0.486051,-0.2932 -0.211802,-0.1612 -0.506044,-0.3314 -0.653868,-0.3782 -0.147826,-0.046 -0.336691,-0.1667 -0.4197,-0.2668 -0.083,-0.099 -0.245514,-0.1818 -0.36112,-0.1818 -0.115608,0 -0.31876,-0.099 -0.451449,-0.2217 -0.13269,-0.1219 -0.549265,-0.3802 -0.925726,-0.5739 -0.376459,-0.1938 -0.768475,-0.4219 -0.871147,-0.5068 -0.102671,-0.085 -0.382682,-0.2541 -0.622247,-0.3756 -0.239566,-0.1217 -0.635946,-0.3226 -0.880845,-0.4464 -0.2448998,-0.1239 -0.5177679,-0.3126 -0.606374,-0.4193 -0.088606,-0.1068 -0.2436037,-0.1942 -0.3444392,-0.1942 -0.1008361,0 -0.3599893,-0.1259 -0.5758973,-0.2798 -0.4271668,-0.3044 -0.929315,-0.594 -1.5126062,-0.8723 -0.2053417,-0.098 -0.4502087,-0.271 -0.5441488,-0.3842 -0.09394,-0.1133 -0.2653878,-0.206 -0.3809947,-0.206 -0.115607,0 -0.3304175,-0.112 -0.4773564,-0.2489 -0.1469391,-0.1369 -0.3429472,-0.2489 -0.4355735,-0.2489 -0.2487718,0 -0.6991258,-0.4608 -0.7850981,-0.8034 -0.092114,-0.3669 -0.00161,-0.6575 0.3312633,-1.0633 0.2182241,-0.2661 0.2359556,-0.2718 0.1223932,-0.04 -0.2661913,0.5449 -0.165067,0.9947 0.2863483,1.2737 0.5291978,0.327 0.8909627,0.3416 0.396966,0.016 -0.3642908,-0.2402 -0.5895167,-0.877 -0.3101455,-0.877 0.1308312,0 1.5393488,0.7571 3.4764155,1.8689 0.6455496,0.3704 3.3280434,1.8995 7.2009954,4.1047 0.180513,0.1027 0.524212,0.3044 0.763777,0.4479 0.239565,0.1435 1.177605,0.6961 2.084529,1.228 1.027074,0.6023 1.650866,1.0436 1.654016,1.1701 0.0035,0.1389 0.121111,0.067 0.373348,-0.2279 0.425963,-0.4983 0.465279,-0.4338 0.132636,0.218 -0.448393,0.8785 -1.23851,1.2278 -1.733764,0.7664 z m -2.615296,-10.8518 c 0.278314,-0.4278 0.723932,-1.0858 0.990265,-1.4623 1.093011,-1.5449 1.830062,-2.69 1.882469,-2.9246 0.05104,-0.2283 0.06348,-0.2308 0.15115,-0.029 0.06889,0.1585 -0.255507,0.8417 -1.163011,2.4493 -0.692198,1.2263 -1.258544,2.2875 -1.258544,2.3582 0,0.1809 -0.422779,0.3864 -0.794895,0.3864 l -0.313459,0 0.506025,-0.7778 z m -1.447915,-0.4615 c -0.05142,-0.084 -0.03211,-0.2127 0.04292,-0.2877 0.191171,-0.1912 0.312285,-0.028 0.169199,0.227 -0.08707,0.1555 -0.143512,0.1717 -0.21213,0.061 z"
         id="path5247"
         inkscape:connector-curvature="0" />
    </g>
  </g>
</svg>
